<?xml version="1.0"?>
<svg version="1.1" xmlns="http://www.w3.org/2000/svg" width="160px" height="68px" style=""><path fill="#ff6347" d="M43.388671875,69.9765625l-11.54296875,0l-18.6328125-32.40234375l-0.263671875,0q0.556640625,8.583984375,0.556640625,12.24609375l0,20.15625l-8.115234375,0l0-42.83203125l11.455078125,0l18.603515625,32.080078125l0.205078125,0q-0.439453125-8.349609375-0.439453125-11.806640625l0-20.2734375l8.173828125,0l0,42.83203125z M97.17099609375,48.501953125q0,10.634765625-5.2734375,16.34765625t-15.1171875,5.712890625t-15.1171875-5.712890625t-5.2734375-16.40625t5.2880859375-16.3330078125t15.1611328125-5.6396484375t15.1025390625,5.68359375t5.2294921875,16.34765625z M65.91123046875,48.501953125q0,7.177734375,2.724609375,10.810546875t8.14453125,3.6328125q10.869140625,0,10.869140625-14.443359375q0-14.47265625-10.810546875-14.47265625q-5.419921875,0-8.173828125,3.6474609375t-2.75390625,10.8251953125z M151.8908203125,69.9765625l-10.341796875,0l-5.80078125-22.5q-0.322265625-1.201171875-1.0986328125-4.9658203125t-0.8935546875-5.0537109375q-0.17578125,1.58203125-0.87890625,5.0830078125t-1.083984375,4.9951171875l-5.771484375,22.44140625l-10.3125,0l-10.927734375-42.83203125l8.935546875,0l5.478515625,23.37890625q1.435546875,6.474609375,2.080078125,11.220703125q0.17578125-1.669921875,0.8056640625-5.1708984375t1.1865234375-5.4345703125l6.240234375-23.994140625l8.583984375,0l6.240234375,23.994140625q0.41015625,1.611328125,1.025390625,4.921875t0.9375,5.68359375q0.29296875-2.28515625,0.9375-5.6982421875t1.171875-5.5224609375l5.44921875-23.37890625l8.935546875,0z"/><path fill="#" d=""/></svg>
