<?xml version="1.0"?>
<svg version="1.1" xmlns="http://www.w3.org/2000/svg" width="245px" height="60px" style=""><path fill="#ff6347" d="M2.0126953125,25.2685546875q0-0.19921875,0.19091796875-0.298828125t0.4150390625-0.1494140625t0.40673828125-0.0498046875l0.1826171875,0q0.5810546875,0,0.83837890625,0.265625t0.62255859375,0.6806640625q2.490234375,3.6025390625,4.5654296875,7.41259765625t4.0009765625,7.71142578125q0.166015625-4.548828125,0.34033203125-9.15576171875t0.43994140625-9.13916015625q0-0.19921875,0.19091796875-0.33203125t0.431640625-0.19921875t0.48974609375-0.0830078125t0.3818359375-0.0166015625q0.19921875,0,0.43994140625,0.0166015625t0.4814453125,0.099609375t0.3984375,0.19921875t0.15771484375,0.3154296875q0.06640625,0.7138671875,0.07470703125,1.43603515625t0.00830078125,1.43603515625q0,5.345703125-0.232421875,10.4755859375t-0.232421875,10.359375l0,1.1953125q0,0.06640625-0.06640625,0.19921875q0.033203125,0.1328125,0.099609375,0.29052734375t0.06640625,0.22412109375q0,0.265625-0.27392578125,0.3984375t-0.59765625,0.20751953125t-0.57275390625,0.07470703125t-0.1826171875,0q-0.8466796875,0-1.427734375-0.46484375t-0.5810546875-1.1123046875q-1.228515625-2.755859375-2.44873046875-5.47021484375t-2.54833984375-5.40380859375q-0.8466796875-1.693359375-1.70166015625-3.39501953125t-1.83447265625-3.29541015625q0.033203125,0.033203125,0.033203125,0.099609375q0.166015625,1.66015625,0.35693359375,3.31201171875t0.29052734375,3.31201171875q0.06640625,1.427734375,0.1494140625,2.888671875t0.265625,2.888671875q0,0.5478515625-0.34033203125,0.697265625t-0.78857421875,0.1494140625q-0.3818359375,0-0.72216796875-0.099609375t-0.40673828125-0.498046875q0-1.52734375-0.1162109375-3.24560546875t-0.2158203125-3.46142578125q-0.166015625-2.3076171875-0.43994140625-4.68994140625t-0.27392578125-4.65673828125q0-0.099609375,0.0166015625-0.20751953125t0.0166015625-0.24072265625q-0.099609375-0.166015625-0.22412109375-0.3486328125t-0.12451171875-0.33203125z M20.451552734375,21.8818359375q0-0.33203125,0.5146484375-0.47314453125t0.8466796875-0.14111328125q0.3818359375,0,0.83837890625,0.099609375t0.55615234375,0.5146484375q0.4814453125,1.9423828125,0.73876953125,3.95947265625t0.39013671875,4.05908203125t0.2158203125,4.05908203125t0.1826171875,3.99267578125q0.4482421875-1.9755859375,0.92138671875-3.92626953125t1.23681640625-3.89306640625l0-1.328125q0-0.8466796875,0.58935546875-1.22021484375t1.58544921875-0.37353515625q0.099609375,0,0.45654296875,0.0498046875t0.35693359375,0.33203125q-0.06640625,0.19921875-0.15771484375,0.3818359375t-0.09130859375,0.3984375q0,2.5234375,0.59765625,5.17138671875t1.1787109375,5.15478515625q0.33203125-2.1416015625,0.763671875-4.2666015625t0.896484375-4.2333984375q0.6142578125-2.822265625,0.93798828125-4.68994140625t0.6142578125-2.955078125t0.630859375-1.5439453125t0.95458984375-0.45654296875q0.3818359375-0.033203125,0.7138671875,0.1328125t0.265625,0.5478515625q-1.1953125,5.77734375-2.23291015625,11.587890625t-2.11669921875,11.62109375q0,0.33203125,0.1162109375,0.7802734375t0.1162109375,0.796875q0,0.19921875-0.1826171875,0.33203125t-0.43994140625,0.22412109375t-0.564453125,0.12451171875t-0.53955078125,0.033203125q-0.5146484375,0-1.0791015625-0.15771484375t-0.73046875-0.90478515625q-0.5810546875-2.58984375-1.07080078125-5.20458984375t-0.90478515625-5.27099609375q-0.1328125,0.6142578125-0.2490234375,1.2451171875t-0.2158203125,1.2783203125q-0.4814453125,2.822265625-1.0625,5.64453125t-0.5810546875,5.7109375q0,0.7138671875-0.298828125,0.92138671875t-1.0126953125,0.20751953125q-0.5478515625,0-0.9296875-0.1826171875q-0.298828125-0.166015625-0.564453125-0.298828125q-0.232421875-0.1328125-0.42333984375-0.30712890625t-0.19091796875-0.34033203125q-0.265625-3.6025390625-0.37353515625-7.1552734375t-0.24072265625-7.1552734375q-0.1328125-3.2373046875-0.39013671875-6.46630859375t-0.57275390625-6.41650390625z M40.51736328125,46.6181640625q0-0.099609375,0.06640625-0.70556640625t0.17431640625-1.4775390625t0.24072265625-1.8759765625t0.232421875-1.90087890625t0.17431640625-1.5771484375t0.07470703125-0.9130859375q-0.1328125-0.06640625-0.32373046875-0.19091796875t-0.19091796875-0.29052734375q0-0.232421875,0.22412109375-0.37353515625t0.39013671875-0.20751953125q0.06640625-0.8466796875,0.166015625-2.357421875t0.30712890625-3.26220703125t0.5810546875-3.552734375t0.98779296875-3.2705078125t1.4775390625-2.39892578125t2.125-0.9296875t2.091796875,0.796875t1.35302734375,2.0751953125t0.796875,2.8388671875t0.4150390625,3.1044921875t0.17431640625,2.888671875t0.06640625,2.158203125q0.033203125,0.5146484375,0.2490234375,0.68896484375t0.47314453125,0.24072265625t0.46484375,0.1494140625t0.20751953125,0.4150390625q0,0.3818359375-0.46484375,0.53125t-0.73046875,0.1826171875q0.166015625,2.0751953125,0.45654296875,4.083984375t0.77197265625,4.05078125q0.06640625,0.3818359375,0.1826171875,0.77197265625t0.1162109375,0.75537109375q0,0.265625-0.1826171875,0.43994140625t-0.47314453125,0.27392578125t-0.5810546875,0.1328125t-0.48974609375,0.033203125q-0.7470703125,0-1.26171875-0.2822265625t-0.6806640625-1.0791015625q-0.4482421875-2.1416015625-0.8798828125-4.4990234375q-0.365234375-2.0419921875-0.365234375-3.9677734375q0-0.298828125,0.0166015625-0.59765625q-1.39453125,0-2.8056640625,0.06640625t-2.7060546875,0.498046875q-0.033203125,0.4482421875-0.166015625,1.693359375t-0.298828125,2.6728515625t-0.34033203125,2.73095703125t-0.20751953125,1.85107421875q-0.033203125,0.232421875-0.34033203125,0.43994140625t-0.6640625,0.22412109375t-0.630859375-0.22412109375t-0.27392578125-0.85498046875z M43.62185546875,36.5576171875q1.294921875-0.298828125,2.59814453125-0.3486328125t2.63134765625-0.1162109375q-0.06640625-0.4150390625-0.033203125-0.85498046875t0.033203125-0.88818359375q0-0.9794921875-0.0498046875-2.2744140625t-0.1494140625-2.623046875t-0.25732421875-2.61474609375t-0.35693359375-2.291015625t-0.42333984375-1.60205078125t-0.48974609375-0.59765625q-0.5146484375,0.033203125-0.97119140625,0.88818359375t-0.830078125,2.1748046875t-0.6806640625,2.955078125t-0.5146484375,3.19580078125t-0.34033203125,2.9052734375t-0.166015625,2.091796875z M57.287763671875,23.56689453125q-0.04150390625-0.50634765625,0.06640625-0.8798828125t0.431640625-0.6142578125t1.03759765625-0.24072265625l2.6728515625,0q0.5478515625,0,1.43603515625,0.05810546875t1.9091796875,0.17431640625t2.03369140625,0.35693359375t1.85107421875,0.59765625t1.361328125,0.8798828125t0.52294921875,1.23681640625q0,1.0126953125-0.58935546875,1.90087890625t-1.4775390625,1.60205078125t-1.8759765625,1.27001953125t-1.76806640625,1.00439453125q3.087890625,0.6806640625,4.8310546875,2.822265625t1.7431640625,5.345703125q0,1.693359375-0.6474609375,3.34521484375t-1.76806640625,2.97998046875t-2.65625,2.1416015625t-3.29541015625,0.8134765625q-0.232421875,0-0.52294921875-0.0498046875t-0.53125-0.15771484375t-0.4150390625-0.30712890625t-0.17431640625-0.5146484375q0-1.4609375,1.5771484375-1.4609375q0.265625,0,0.62255859375,0.07470703125t0.55615234375,0.30712890625q0.9130859375-0.3818359375,1.66845703125-1.2119140625t1.2783203125-1.85107421875t0.8134765625-2.1416015625t0.29052734375-2.03369140625q0-1.095703125-0.32373046875-2.23291015625t-0.93798828125-2.1083984375t-1.5107421875-1.63525390625t-2.05859375-0.830078125q-0.298828125-0.033203125-0.65576171875-0.0498046875l-0.7138671875-0.033203125t-0.697265625-0.099609375t-0.58935546875-0.265625q0.1328125,2.755859375,0.34033203125,5.4951171875t0.55615234375,5.4951171875q0.1328125,0.1328125,0.1826171875,0.39013671875t0.0830078125,0.5478515625t0.033203125,0.55615234375l0,0.4482421875q0,0.298828125-0.19921875,0.48974609375t-0.47314453125,0.30712890625t-0.5810546875,0.1494140625t-0.53955078125,0.033203125q-0.7470703125,0-1.1455078125-0.19921875t-0.564453125-0.5810546875t-0.2158203125-0.87158203125t-0.0830078125-1.07080078125q-0.4482421875-4.6318359375-0.6474609375-9.1640625t-0.19921875-9.1640625q0-0.5478515625-0.04150390625-1.05419921875z M60.350751953125,22.861328125q0,2.0419921875,0.1328125,4.09228515625t0.232421875,4.09228515625q0.7470703125-0.4482421875,1.958984375-1.05419921875t2.34912109375-1.33642578125t1.95068359375-1.6103515625t0.8134765625-1.9091796875q0-0.8134765625-0.962890625-1.23681640625t-2.2412109375-0.630859375t-2.49853515625-0.25732421875t-1.73486328125-0.1494140625z M74.871640625,31.9091796875l0-1.2783203125l0-1.3115234375q0.0166015625-1.328125,0.10791015625-2.54833984375t0.25732421875-2.03369140625q0.099609375-0.4482421875,0.59765625-0.5478515625t0.86328125-0.099609375q0.6806640625,0,1.00439453125,0.166015625t0.42333984375,0.47314453125t0.0830078125,0.73046875t-0.0166015625,0.97119140625q0,0.7802734375-0.033203125,2.1748046875t-0.0498046875,3.087890625l0,0.8466796875q0,1.2783203125,0.033203125,2.6396484375q0.0498046875,1.826171875,0.19091796875,3.49462890625t0.39013671875,3.0048828125t0.697265625,2.05029296875q0.7138671875-0.6474609375,1.427734375-1.81787109375t1.361328125-2.63134765625t1.23681640625-3.07958984375t1.07080078125-3.16259765625t0.82177734375-2.9052734375t0.50634765625-2.3076171875q0.265625-1.361328125,0.35693359375-2.7724609375t0.09130859375-3.1376953125q0.5146484375-0.6142578125,0.796875-0.77197265625t0.896484375-0.15771484375q0.298828125,0,0.60595703125,0.0498046875t0.58935546875,0.232421875l0.232421875,0.365234375l0,0.4150390625q0,3.021484375-0.29052734375,6.13427734375t-0.6142578125,6.2587890625t-0.6142578125,6.30859375t-0.29052734375,6.28369140625q0,0.4814453125,0.04150390625,1.02099609375t0.17431640625,1.02099609375l-0.06640625,0.19921875q-0.232421875,0.3818359375-0.763671875,0.4814453125t-0.9130859375,0.099609375q-0.8134765625,0-1.22021484375-0.24072265625t-0.53955078125-0.6640625t-0.1162109375-0.9794921875t0.0166015625-1.20361328125q0-2.2412109375,0.19921875-4.55712890625t0.4814453125-4.55712890625q-0.265625,0.7802734375-0.630859375,1.88427734375t-0.85498046875,2.2080078125t-1.13720703125,2.025390625t-1.427734375,1.31982421875l0.033203125-0.033203125l-0.1328125,0.06640625l0.033203125,0q-0.4814453125,0.265625-0.88818359375,0.35693359375t-0.95458984375,0.09130859375q-1.095703125,0-1.81787109375-0.6474609375t-1.17041015625-1.66845703125t-0.6640625-2.291015625t-0.30712890625-2.54833984375t-0.09130859375-2.43212890625l0-1.90087890625q0-0.9130859375-0.0166015625-2.1748046875z M80.781796875,45.1240234375q0.033203125,0,0.033203125-0.033203125l0.033203125,0q-0.033203125,0.033203125-0.06640625,0.033203125z M92.812451171875,45.20703125q0.033203125-0.697265625,0.033203125-1.361328125q0-2.4072265625,0.17431640625-4.7978515625t0.24072265625-4.7978515625q0.099609375-2.755859375,0.1826171875-5.4619140625t0.33203125-5.4453125q0.06640625-0.6806640625,0.39013671875-0.88818359375t0.97119140625-0.20751953125q0.298828125,0,0.796875,0.1162109375t0.498046875,0.564453125q0.232421875,0.033203125,0.46484375,0.033203125q0.3486328125,0,0.7138671875-0.06640625q0.59765625-0.099609375,1.22021484375-0.22412109375t1.23681640625-0.24072265625t1.1787109375-0.1162109375q0.1328125,0,0.37353515625,0.0166015625t0.4814453125,0.099609375t0.40673828125,0.20751953125t0.166015625,0.32373046875t-0.39013671875,0.35693359375t-1.02099609375,0.27392578125t-1.361328125,0.19921875t-1.427734375,0.14111328125t-1.23681640625,0.09130859375t-0.77197265625,0.033203125l-0.033203125,6.2421875l0.033203125,3.1044921875q0.5146484375,0,1.5439453125-0.033203125q0.4150390625-0.0166015625,0.830078125-0.0166015625q0.630859375,0,1.294921875,0.033203125q1.095703125,0.0498046875,1.9755859375,0.19921875t1.1123046875,0.53125q0,0.232421875-0.24072265625,0.37353515625t-0.53955078125,0.20751953125t-0.60595703125,0.0830078125t-0.43994140625,0.0166015625q-1.228515625,0-2.4736328125-0.0498046875t-2.45703125-0.19921875q0,2.0419921875-0.10791015625,4.05078125t-0.10791015625,4.05078125q0,0.8798828125,0.0166015625,1.73486328125t0.19921875,1.70166015625q0.4482421875-0.033203125,0.97119140625-0.0830078125t1.0625-0.12451171875t1.03759765625-0.12451171875t0.86328125-0.0498046875q0.19921875,0,0.53955078125,0.0498046875t0.697265625,0.166015625t0.6142578125,0.29052734375t0.25732421875,0.40673828125q0,0.265625-0.48974609375,0.47314453125t-1.25341796875,0.33203125t-1.66845703125,0.17431640625t-1.75146484375,0.06640625t-1.52734375,0.0166015625l-0.962890625,0q-0.9130859375,0-1.33642578125-0.34033203125t-0.58935546875-0.88818359375q-0.1328125-0.4482421875-0.1162109375-1.0126953125l0-0.232421875z M106.61947265625,23.8076171875q0-0.19921875,0.15771484375-0.3154296875t0.37353515625-0.17431640625t0.43994140625-0.07470703125t0.39013671875-0.0498046875q0.7470703125-0.099609375,1.9423828125-0.2490234375t2.44873046875-0.29052734375t2.43212890625-0.24072265625t1.892578125-0.099609375q0.33203125,0,0.830078125,0.1162109375t0.53125,0.564453125l-0.1826171875,0.3154296875q-1.12890625,2.556640625-2.31591796875,5.25439453125t-2.2412109375,5.48681640625t-1.86767578125,5.6279296875t-1.1123046875,5.6943359375q0.265625,0.033203125,0.9794921875,0.06640625t1.61865234375,0.0830078125t1.86767578125,0.1494140625t1.76806640625,0.22412109375t1.3115234375,0.29052734375t0.50634765625,0.3984375q0,0.265625-0.1826171875,0.42333984375t-0.45654296875,0.24072265625t-0.564453125,0.12451171875t-0.48974609375,0.04150390625q-0.33203125,0-1.22021484375-0.0166015625t-1.9921875-0.07470703125t-2.29931640625-0.15771484375t-2.18310546875-0.2490234375t-1.626953125-0.35693359375t-0.63916015625-0.47314453125q0-0.9130859375,0.40673828125-2.7060546875t1.07080078125-4.017578125t1.4775390625-4.64013671875t1.6435546875-4.57373046875t1.5771484375-3.84326171875t1.26171875-2.46533203125q-1.66015625,0.099609375-3.29541015625,0.29052734375t-3.29541015625,0.19091796875q-0.232421875,0-0.59765625-0.06640625t-0.365234375-0.4482421875z M121.78782226562,45.20703125q0.033203125-0.697265625,0.033203125-1.361328125q0-2.4072265625,0.17431640625-4.7978515625t0.24072265625-4.7978515625q0.099609375-2.755859375,0.1826171875-5.4619140625t0.33203125-5.4453125q0.06640625-0.6806640625,0.39013671875-0.88818359375t0.97119140625-0.20751953125q0.298828125,0,0.796875,0.1162109375t0.498046875,0.564453125q0.232421875,0.033203125,0.46484375,0.033203125q0.3486328125,0,0.7138671875-0.06640625q0.59765625-0.099609375,1.22021484375-0.22412109375t1.23681640625-0.24072265625t1.1787109375-0.1162109375q0.1328125,0,0.37353515625,0.0166015625t0.4814453125,0.099609375t0.40673828125,0.20751953125t0.166015625,0.32373046875t-0.39013671875,0.35693359375t-1.02099609375,0.27392578125t-1.361328125,0.19921875t-1.427734375,0.14111328125t-1.23681640625,0.09130859375t-0.77197265625,0.033203125l-0.033203125,6.2421875l0.033203125,3.1044921875q0.5146484375,0,1.5439453125-0.033203125q0.4150390625-0.0166015625,0.830078125-0.0166015625q0.630859375,0,1.294921875,0.033203125q1.095703125,0.0498046875,1.9755859375,0.19921875t1.1123046875,0.53125q0,0.232421875-0.24072265625,0.37353515625t-0.53955078125,0.20751953125t-0.60595703125,0.0830078125t-0.43994140625,0.0166015625q-1.228515625,0-2.4736328125-0.0498046875t-2.45703125-0.19921875q0,2.0419921875-0.10791015625,4.05078125t-0.10791015625,4.05078125q0,0.8798828125,0.0166015625,1.73486328125t0.19921875,1.70166015625q0.4482421875-0.033203125,0.97119140625-0.0830078125t1.0625-0.12451171875t1.03759765625-0.12451171875t0.86328125-0.0498046875q0.19921875,0,0.53955078125,0.0498046875t0.697265625,0.166015625t0.6142578125,0.29052734375t0.25732421875,0.40673828125q0,0.265625-0.48974609375,0.47314453125t-1.25341796875,0.33203125t-1.66845703125,0.17431640625t-1.75146484375,0.06640625t-1.52734375,0.0166015625l-0.962890625,0q-0.9130859375,0-1.33642578125-0.34033203125t-0.58935546875-0.88818359375q-0.1328125-0.4482421875-0.1162109375-1.0126953125l0-0.232421875z M142.06397460938,35.2626953125q0-0.9794921875,0.10791015625-2.3740234375t0.3984375-2.9052734375t0.7802734375-3.0048828125t1.25341796875-2.6396484375t1.826171875-1.8095703125q0.8798828125-0.5478515625,2.025390625-0.5478515625q0.232421875,0,0.4814453125,0.033203125q2.888671875,0.265625,4.44091796875,1.31982421875t2.26611328125,2.6728515625t0.830078125,3.685546875t0.1162109375,4.35791015625q0,1.8427734375-0.34033203125,4.00927734375t-1.20361328125,4.04248046875t-2.38232421875,3.12939453125t-3.85986328125,1.25341796875q-1.427734375,0-2.49853515625-0.52294921875t-1.81787109375-1.39453125t-1.228515625-2.025390625t-0.73046875-2.390625t-0.35693359375-2.49853515625t-0.10791015625-2.390625z M145.43409179688,34.515625q0,0.7138671875,0.0166015625,1.75146484375t0.14111328125,2.18310546875t0.32373046875,2.28271484375t0.58935546875,2.06689453125t0.98779296875,1.52734375t1.4443359375,0.630859375l0.0830078125,0q0.763671875,0,1.361328125-0.5810546875q0.630859375-0.6142578125,1.12060546875-1.4775390625t0.8466796875-1.81787109375t0.63916015625-1.63525390625l-0.06640625,0.1494140625q0.4814453125-1.52734375,0.6474609375-3.12939453125t0.166015625-3.16259765625q0-0.7470703125-0.099609375-1.80126953125t-0.32373046875-2.19970703125t-0.5810546875-2.26611328125t-0.90478515625-1.95068359375t-1.2783203125-1.26171875q-0.53125-0.3154296875-1.1787109375-0.33203125q-0.2490234375,0-0.498046875,0.0498046875q-0.8466796875,0.166015625-1.4443359375,0.830078125t-0.97119140625,1.63525390625t-0.57275390625,2.125t-0.30712890625,2.32421875t-0.12451171875,2.2412109375t-0.0166015625,1.81787109375z M152.92139648438,39.62890625l0-0.033203125l0,0.033203125z M160.02138671875,36.5576171875q0-2.85546875,0.15771484375-5.64453125t0.39013671875-5.64453125q0.06640625-0.7470703125,0.0830078125-1.4443359375t0.15771484375-1.22021484375t0.498046875-0.830078125t1.10400390625-0.30712890625q0.4814453125,0,1.00439453125,0.166015625t0.52294921875,0.7802734375q0,2.3076171875-0.19091796875,4.54052734375t-0.25732421875,4.44091796875q1.8095703125-2.0419921875,3.8681640625-3.81005859375t4.3662109375-3.49462890625q0.33203125-0.232421875,0.8466796875-0.2490234375q0.166015625,0,0.29052734375,0.0166015625t0.25732421875,0.0498046875q0.166015625,0.06640625,0.34033203125,0.15771484375t0.17431640625,0.25732421875q0,0.1328125-0.1494140625,0.232421875q-1.7265625,1.39453125-3.41162109375,2.8388671875t-3.21240234375,3.087890625q0.19921875,0.3818359375,0.34033203125,0.7138671875t0.30712890625,0.7138671875q1.39453125,3.3037109375,2.38232421875,6.76513671875t2.10009765625,6.86474609375q0.099609375,0.3818359375,0.29052734375,0.78857421875t0.35693359375,0.8134765625t0.29052734375,0.763671875t0.12451171875,0.58935546875q0,0.298828125-0.19091796875,0.47314453125t-0.43994140625,0.27392578125t-0.53955078125,0.1328125t-0.53955078125,0.033203125q-0.5810546875,0-1.03759765625-0.166015625t-0.72216796875-0.7470703125q-1.228515625-3.91796875-2.36572265625-7.8359375t-2.29931640625-7.90234375q-0.3818359375,0.3818359375-0.763671875,0.95458984375t-0.697265625,1.05419921875q0,2.490234375,0.1162109375,4.947265625t0.3984375,4.947265625q0.06640625,0.7138671875,0.22412109375,1.427734375t0.15771484375,1.4609375q0,0.5478515625-0.564453125,0.763671875t-1.2451171875,0.2158203125q-0.7470703125,0-1.12060546875-0.1494140625t-0.53125-0.39013671875t-0.19091796875-0.53125t-0.099609375-0.55615234375q-0.3818359375-2.623046875-0.4814453125-5.18798828125t-0.099609375-5.15478515625z M177.03250976563,45.20703125q0.033203125-0.697265625,0.033203125-1.361328125q0-2.4072265625,0.17431640625-4.7978515625t0.24072265625-4.7978515625q0.099609375-2.755859375,0.1826171875-5.4619140625t0.33203125-5.4453125q0.06640625-0.6806640625,0.39013671875-0.88818359375t0.97119140625-0.20751953125q0.298828125,0,0.796875,0.1162109375t0.498046875,0.564453125q0.232421875,0.033203125,0.46484375,0.033203125q0.3486328125,0,0.7138671875-0.06640625q0.59765625-0.099609375,1.22021484375-0.22412109375t1.23681640625-0.24072265625t1.1787109375-0.1162109375q0.1328125,0,0.37353515625,0.0166015625t0.4814453125,0.099609375t0.40673828125,0.20751953125t0.166015625,0.32373046875t-0.39013671875,0.35693359375t-1.02099609375,0.27392578125t-1.361328125,0.19921875t-1.427734375,0.14111328125t-1.23681640625,0.09130859375t-0.77197265625,0.033203125l-0.033203125,6.2421875l0.033203125,3.1044921875q0.5146484375,0,1.5439453125-0.033203125q0.4150390625-0.0166015625,0.830078125-0.0166015625q0.630859375,0,1.294921875,0.033203125q1.095703125,0.0498046875,1.9755859375,0.19921875t1.1123046875,0.53125q0,0.232421875-0.24072265625,0.37353515625t-0.53955078125,0.20751953125t-0.60595703125,0.0830078125t-0.43994140625,0.0166015625q-1.228515625,0-2.4736328125-0.0498046875t-2.45703125-0.19921875q0,2.0419921875-0.10791015625,4.05078125t-0.10791015625,4.05078125q0,0.8798828125,0.0166015625,1.73486328125t0.19921875,1.70166015625q0.4482421875-0.033203125,0.97119140625-0.0830078125t1.0625-0.12451171875t1.03759765625-0.12451171875t0.86328125-0.0498046875q0.19921875,0,0.53955078125,0.0498046875t0.697265625,0.166015625t0.6142578125,0.29052734375t0.25732421875,0.40673828125q0,0.265625-0.48974609375,0.47314453125t-1.25341796875,0.33203125t-1.66845703125,0.17431640625t-1.75146484375,0.06640625t-1.52734375,0.0166015625l-0.962890625,0q-0.9130859375,0-1.33642578125-0.34033203125t-0.58935546875-0.88818359375q-0.1328125-0.4482421875-0.1162109375-1.0126953125l0-0.232421875z M190.872734375,44.310546875q-0.0166015625-0.498046875-0.0166015625-0.99609375q0-1.560546875,0.166015625-3.1376953125q0.19921875-2.091796875,0.265625-4.1171875q0.06640625-2.3740234375,0.19921875-4.9306640625q0.0830078125-1.39453125,0.0830078125-2.755859375q0-1.1123046875-0.0498046875-2.2080078125q0.166015625-0.3818359375,0.43994140625-0.5146484375t0.68896484375-0.1328125q0.19921875,0,0.42333984375,0.033203125t0.39013671875,0.166015625q0.232421875,0.033203125,0.57275390625,0.06640625t0.52294921875,0.19921875q0.06640625,0.099609375,0.34033203125,0.6806640625t0.6474609375,1.4111328125t0.7802734375,1.80126953125t0.7802734375,1.8427734375t0.6474609375,1.53564453125t0.34033203125,0.830078125q1.560546875-2.822265625,3.0546875-5.80224609375t3.2705078125-5.61962890625q0.166015625-0.232421875,0.57275390625-0.34033203125t0.67236328125-0.10791015625q0.7138671875,0,1.03759765625,0.34033203125t0.42333984375,0.87158203125q0.06640625,0.33203125,0.0830078125,0.7138671875q0.0166015625,0.19921875-0.0166015625,0.4150390625q-0.06640625,0.6142578125-0.06640625,1.162109375q0,3.8681640625-0.265625,7.67822265625t-0.4814453125,7.69482421875q-0.033203125,0.796875-0.033203125,1.66015625t0.033203125,1.79296875q0.0166015625,0.33203125,0.0166015625,0.6474609375q0,1.4609375-0.2490234375,2.72265625q-0.232421875,0.3818359375-0.763671875,0.4814453125t-0.896484375,0.099609375q-0.7802734375,0-1.494140625-0.365234375l-0.1826171875-0.2158203125l-0.06640625-0.265625t-0.033203125-0.265625q0-2.4072265625,0.17431640625-4.84765625t0.39013671875-4.87255859375t0.45654296875-4.85595703125t0.40673828125-4.84765625q-0.9794921875,1.626953125-1.90087890625,3.31201171875t-1.73486328125,3.42822265625q-0.298828125,0.6806640625-0.57275390625,1.4609375t-0.65576171875,1.39453125q-0.19921875,0.298828125-0.67236328125,0.365234375t-0.82177734375,0.06640625q-0.33203125,0-0.68896484375-0.1162109375t-0.48974609375-0.498046875q-0.6142578125-1.8759765625-1.3115234375-3.6689453125t-1.4111328125-3.6357421875q0,1.228515625,0.0498046875,3.17919921875t0.0498046875,4.04248046875t-0.06640625,4.0009765625t-0.3154296875,3.021484375q-0.06640625,0.4150390625-0.53955078125,0.5146484375t-0.82177734375,0.099609375q-0.265625,0-0.50634765625-0.033203125t-0.47314453125-0.1328125z M210.58991210938,46.767578125q0.06640625-3.4697265625,0.29052734375-6.9228515625t0.39013671875-6.9228515625q0.033203125-1.328125,0.033203125-2.41552734375t0.10791015625-1.88427734375t0.3984375-1.22021484375t0.97119140625-0.42333984375q0.5810546875,0,0.8798828125,0.166015625t0.45654296875,0.42333984375t0.19091796875,0.5810546875t0.033203125,0.65576171875q0,0.4814453125,0.033203125,0.95458984375t0.033203125,0.95458984375q0,3.5029296875-0.19091796875,6.9892578125t-0.19091796875,7.0224609375q0,0.5146484375,0.0166015625,1.03759765625t0.0166015625,1.07080078125q0,0.19921875-0.1826171875,0.33203125t-0.45654296875,0.22412109375t-0.5810546875,0.12451171875t-0.50634765625,0.033203125q-0.232421875,0-0.52294921875-0.033203125t-0.564453125-0.14111328125t-0.46484375-0.25732421875t-0.19091796875-0.3486328125z M211.51959960938,24.255859375q0-0.166015625,0.0498046875-0.37353515625t0.1162109375-0.37353515625q0.033203125-0.19921875,0.099609375-0.6806640625t0.24072265625-0.93798828125t0.4814453125-0.8134765625t0.87158203125-0.35693359375l0.3154296875,0q0.265625,0.06640625,0.53955078125,0.166015625t0.27392578125,0.4814453125q0,0.166015625-0.0166015625,0.3154296875t-0.0498046875,0.33203125q-0.1328125,0.9794921875-0.25732421875,1.5439453125t-0.29052734375,0.85498046875t-0.42333984375,0.37353515625t-0.65576171875,0.1162109375q-0.1328125,0-0.35693359375-0.0166015625t-0.431640625-0.0830078125t-0.35693359375-0.20751953125t-0.1494140625-0.34033203125z M217.90572265625,25.2685546875q0-0.19921875,0.19091796875-0.298828125t0.4150390625-0.1494140625t0.40673828125-0.0498046875l0.1826171875,0q0.5810546875,0,0.83837890625,0.265625t0.62255859375,0.6806640625q2.490234375,3.6025390625,4.5654296875,7.41259765625t4.0009765625,7.71142578125q0.166015625-4.548828125,0.34033203125-9.15576171875t0.43994140625-9.13916015625q0-0.19921875,0.19091796875-0.33203125t0.431640625-0.19921875t0.48974609375-0.0830078125t0.3818359375-0.0166015625q0.19921875,0,0.43994140625,0.0166015625t0.4814453125,0.099609375t0.3984375,0.19921875t0.15771484375,0.3154296875q0.06640625,0.7138671875,0.07470703125,1.43603515625t0.00830078125,1.43603515625q0,5.345703125-0.232421875,10.4755859375t-0.232421875,10.359375l0,1.1953125q0,0.06640625-0.06640625,0.19921875q0.033203125,0.1328125,0.099609375,0.29052734375t0.06640625,0.22412109375q0,0.265625-0.27392578125,0.3984375t-0.59765625,0.20751953125t-0.57275390625,0.07470703125t-0.1826171875,0q-0.8466796875,0-1.427734375-0.46484375t-0.5810546875-1.1123046875q-1.228515625-2.755859375-2.44873046875-5.47021484375t-2.54833984375-5.40380859375q-0.8466796875-1.693359375-1.70166015625-3.39501953125t-1.83447265625-3.29541015625q0.033203125,0.033203125,0.033203125,0.099609375q0.166015625,1.66015625,0.35693359375,3.31201171875t0.29052734375,3.31201171875q0.06640625,1.427734375,0.1494140625,2.888671875t0.265625,2.888671875q0,0.5478515625-0.34033203125,0.697265625t-0.78857421875,0.1494140625q-0.3818359375,0-0.72216796875-0.099609375t-0.40673828125-0.498046875q0-1.52734375-0.1162109375-3.24560546875t-0.2158203125-3.46142578125q-0.166015625-2.3076171875-0.43994140625-4.68994140625t-0.27392578125-4.65673828125q0-0.099609375,0.0166015625-0.20751953125t0.0166015625-0.24072265625q-0.099609375-0.166015625-0.22412109375-0.3486328125t-0.12451171875-0.33203125z M236.34458007813,46.767578125q0.06640625-3.4697265625,0.29052734375-6.9228515625t0.39013671875-6.9228515625q0.033203125-1.328125,0.033203125-2.41552734375t0.10791015625-1.88427734375t0.3984375-1.22021484375t0.97119140625-0.42333984375q0.5810546875,0,0.8798828125,0.166015625t0.45654296875,0.42333984375t0.19091796875,0.5810546875t0.033203125,0.65576171875q0,0.4814453125,0.033203125,0.95458984375t0.033203125,0.95458984375q0,3.5029296875-0.19091796875,6.9892578125t-0.19091796875,7.0224609375q0,0.5146484375,0.0166015625,1.03759765625t0.0166015625,1.07080078125q0,0.19921875-0.1826171875,0.33203125t-0.45654296875,0.22412109375t-0.5810546875,0.12451171875t-0.50634765625,0.033203125q-0.232421875,0-0.52294921875-0.033203125t-0.564453125-0.14111328125t-0.46484375-0.25732421875t-0.19091796875-0.3486328125z M237.27426757813,24.255859375q0-0.166015625,0.0498046875-0.37353515625t0.1162109375-0.37353515625q0.033203125-0.19921875,0.099609375-0.6806640625t0.24072265625-0.93798828125t0.4814453125-0.8134765625t0.87158203125-0.35693359375l0.3154296875,0q0.265625,0.06640625,0.53955078125,0.166015625t0.27392578125,0.4814453125q0,0.166015625-0.0166015625,0.3154296875t-0.0498046875,0.33203125q-0.1328125,0.9794921875-0.25732421875,1.5439453125t-0.29052734375,0.85498046875t-0.42333984375,0.37353515625t-0.65576171875,0.1162109375q-0.1328125,0-0.35693359375-0.0166015625t-0.431640625-0.0830078125t-0.35693359375-0.20751953125t-0.1494140625-0.34033203125z"/><path fill="#" d=""/></svg>
